<svg width="63" height="63" viewBox="0 0 63 63" fill="none" xmlns="http://www.w3.org/2000/svg">
<g filter="url(#filter0_d_1482_18951)">
<rect x="6" y="6" width="51" height="51" rx="10" fill="#FFFDFF" shape-rendering="crispEdges"/>
<path fill-rule="evenodd" clip-rule="evenodd" d="M17 24.1111C17 22.9452 17.9452 22 19.1111 22C20.277 22 21.2222 22.9452 21.2222 24.1111C21.2222 25.277 20.277 26.2222 19.1111 26.2222C17.9452 26.2222 17 25.277 17 24.1111ZM23.3333 24.1111C23.3333 23.5281 23.8059 23.0556 24.3889 23.0556H43.3889C43.9719 23.0556 44.4444 23.5281 44.4444 24.1111C44.4444 24.6941 43.9719 25.1667 43.3889 25.1667H24.3889C23.8059 25.1667 23.3333 24.6941 23.3333 24.1111ZM17 31.5C17 30.3341 17.9452 29.3889 19.1111 29.3889C20.277 29.3889 21.2222 30.3341 21.2222 31.5C21.2222 32.6659 20.277 33.6111 19.1111 33.6111C17.9452 33.6111 17 32.6659 17 31.5ZM23.3333 31.5C23.3333 30.917 23.8059 30.4444 24.3889 30.4444H43.3889C43.9719 30.4444 44.4444 30.917 44.4444 31.5C44.4444 32.083 43.9719 32.5556 43.3889 32.5556H24.3889C23.8059 32.5556 23.3333 32.083 23.3333 31.5ZM17 38.8889C17 37.723 17.9452 36.7778 19.1111 36.7778C20.277 36.7778 21.2222 37.723 21.2222 38.8889C21.2222 40.0548 20.277 41 19.1111 41C17.9452 41 17 40.0548 17 38.8889ZM23.3333 38.8889C23.3333 38.3059 23.8059 37.8333 24.3889 37.8333H43.3889C43.9719 37.8333 44.4444 38.3059 44.4444 38.8889C44.4444 39.4719 43.9719 39.9444 43.3889 39.9444H24.3889C23.8059 39.9444 23.3333 39.4719 23.3333 38.8889Z" fill="#373737"/>
</g>
<defs>
<filter id="filter0_d_1482_18951" x="0" y="0" width="63" height="63" filterUnits="userSpaceOnUse" color-interpolation-filters="sRGB">
<feFlood flood-opacity="0" result="BackgroundImageFix"/>
<feColorMatrix in="SourceAlpha" type="matrix" values="0 0 0 0 0 0 0 0 0 0 0 0 0 0 0 0 0 0 127 0" result="hardAlpha"/>
<feOffset/>
<feGaussianBlur stdDeviation="3"/>
<feComposite in2="hardAlpha" operator="out"/>
<feColorMatrix type="matrix" values="0 0 0 0 0 0 0 0 0 0 0 0 0 0 0 0 0 0 0.1 0"/>
<feBlend mode="normal" in2="BackgroundImageFix" result="effect1_dropShadow_1482_18951"/>
<feBlend mode="normal" in="SourceGraphic" in2="effect1_dropShadow_1482_18951" result="shape"/>
</filter>
</defs>
</svg>
