<svg width="29" height="29" viewBox="0 0 29 29" fill="none" xmlns="http://www.w3.org/2000/svg">
<path fill-rule="evenodd" clip-rule="evenodd" d="M26.3027 6.7861C26.6618 7.1004 26.6982 7.64637 26.3839 8.00557L14.2861 21.8328C14.1286 22.0128 13.9036 22.1195 13.6646 22.1275C13.4255 22.1354 13.1939 22.044 13.0248 21.8748L7.83998 16.6896C7.50252 16.3521 7.50252 15.8049 7.83998 15.4674C8.17744 15.1299 8.72458 15.1299 9.06205 15.4674L13.5937 19.9995L25.0833 6.8674C25.3976 6.5082 25.9435 6.47181 26.3027 6.7861Z" fill="#10B759"/>
<path fill-rule="evenodd" clip-rule="evenodd" d="M2.6552 15.4674C2.99266 15.13 3.5398 15.13 3.87726 15.4674L9.06205 20.6527C9.39951 20.9902 9.39951 21.5373 9.06205 21.8748C8.72458 22.2123 8.17744 22.2123 7.83998 21.8748L2.6552 16.6896C2.31773 16.3521 2.31773 15.8049 2.6552 15.4674Z" fill="#10B759"/>
<path fill-rule="evenodd" clip-rule="evenodd" d="M21.1167 6.78507C21.4764 7.09871 21.5138 7.64462 21.2002 8.00438L13.8551 16.4304C13.5415 16.7901 12.9956 16.8275 12.6359 16.5139C12.2761 16.2002 12.2388 15.6543 12.5524 15.2946L19.8975 6.86858C20.2111 6.50882 20.757 6.47143 21.1167 6.78507Z" fill="#10B759"/>
<path fill-rule="evenodd" clip-rule="evenodd" d="M26.3027 6.7861C26.6618 7.1004 26.6982 7.64637 26.3839 8.00557L14.2861 21.8328C14.1286 22.0128 13.9036 22.1195 13.6646 22.1275C13.4255 22.1354 13.1939 22.044 13.0248 21.8748L7.83998 16.6896C7.50252 16.3521 7.50252 15.8049 7.83998 15.4674C8.17744 15.1299 8.72458 15.1299 9.06205 15.4674L13.5937 19.9995L25.0833 6.8674C25.3976 6.5082 25.9435 6.47181 26.3027 6.7861Z" stroke="#10B759" stroke-linecap="round" stroke-linejoin="round"/>
<path fill-rule="evenodd" clip-rule="evenodd" d="M2.6552 15.4674C2.99266 15.13 3.5398 15.13 3.87726 15.4674L9.06205 20.6527C9.39951 20.9902 9.39951 21.5373 9.06205 21.8748C8.72458 22.2123 8.17744 22.2123 7.83998 21.8748L2.6552 16.6896C2.31773 16.3521 2.31773 15.8049 2.6552 15.4674Z" stroke="#10B759" stroke-linecap="round" stroke-linejoin="round"/>
<path fill-rule="evenodd" clip-rule="evenodd" d="M21.1167 6.78507C21.4764 7.09871 21.5138 7.64462 21.2002 8.00438L13.8551 16.4304C13.5415 16.7901 12.9956 16.8275 12.6359 16.5139C12.2761 16.2002 12.2388 15.6543 12.5524 15.2946L19.8975 6.86858C20.2111 6.50882 20.757 6.47143 21.1167 6.78507Z" stroke="#10B759" stroke-linecap="round" stroke-linejoin="round"/>
</svg>
