<svg width="30" height="30" viewBox="0 0 30 30" fill="none" xmlns="http://www.w3.org/2000/svg">
<path fill-rule="evenodd" clip-rule="evenodd" d="M6.09375 8.43703C5.72079 8.43703 5.3631 8.58519 5.09938 8.84891C4.83566 9.11263 4.6875 9.47032 4.6875 9.84328V23.9058C4.6875 24.2787 4.83566 24.6364 5.09938 24.9001C5.3631 25.1639 5.72079 25.312 6.09375 25.312H20.1562C20.3409 25.312 20.5238 25.2757 20.6944 25.205C20.865 25.1343 21.02 25.0307 21.1506 24.9001C21.2812 24.7696 21.3848 24.6145 21.4555 24.4439C21.5261 24.2733 21.5625 24.0905 21.5625 23.9058V13.1245C21.5625 12.6068 21.9822 12.187 22.5 12.187C23.0178 12.187 23.4375 12.6068 23.4375 13.1245V23.9058C23.4375 24.3367 23.3526 24.7634 23.1877 25.1615C23.0228 25.5596 22.7811 25.9213 22.4764 26.226C22.1718 26.5307 21.81 26.7724 21.4119 26.9373C21.0138 27.1022 20.5872 27.187 20.1562 27.187H6.09375C5.22351 27.187 4.38891 26.8413 3.77356 26.226C3.1582 25.6106 2.8125 24.776 2.8125 23.9058V9.84328C2.8125 8.97304 3.1582 8.13844 3.77356 7.52309C4.38891 6.90773 5.22351 6.56203 6.09375 6.56203H15.907C16.4248 6.56203 16.8445 6.98176 16.8445 7.49953C16.8445 8.0173 16.4248 8.43703 15.907 8.43703H6.09375Z" fill="#64738F"/>
<path d="M26.9496 3.11965C26.864 3.02557 26.7602 2.94983 26.6445 2.897C26.5287 2.84417 26.4035 2.81535 26.2764 2.81229C26.1492 2.80922 26.0227 2.83197 25.9046 2.87915C25.7865 2.92634 25.6791 2.99699 25.5891 3.08683L24.8643 3.80812C24.7764 3.89602 24.7271 4.0152 24.7271 4.13947C24.7271 4.26374 24.7764 4.38292 24.8643 4.47082L25.5287 5.1341C25.5723 5.17786 25.624 5.21258 25.6811 5.23627C25.7381 5.25997 25.7992 5.27217 25.8609 5.27217C25.9227 5.27217 25.9838 5.25997 26.0408 5.23627C26.0978 5.21258 26.1496 5.17786 26.1932 5.1341L26.8998 4.43097C27.2572 4.07414 27.2906 3.49289 26.9496 3.11965Z" fill="#64738F"/>
<path d="M23.3988 5.27297L12.8215 15.8316C12.7574 15.8954 12.7107 15.9747 12.6861 16.0618L12.1969 17.5191C12.1852 17.5586 12.1843 17.6006 12.1945 17.6405C12.2046 17.6805 12.2254 17.717 12.2545 17.7462C12.2837 17.7753 12.3202 17.7961 12.3602 17.8062C12.4001 17.8164 12.4421 17.8155 12.4816 17.8038L13.9377 17.3146C14.0248 17.29 14.1041 17.2433 14.168 17.1792L24.7266 6.6007C24.8242 6.50197 24.879 6.36869 24.879 6.2298C24.879 6.09091 24.8242 5.95763 24.7266 5.8589L24.1436 5.27297C24.0447 5.17439 23.9108 5.11904 23.7712 5.11904C23.6316 5.11904 23.4977 5.17439 23.3988 5.27297Z" fill="#64738F"/>
</svg>
