<svg width="10" height="9" viewBox="0 0 10 9" fill="none" xmlns="http://www.w3.org/2000/svg">
<g clip-path="url(#clip0_1896_1673)">
<path d="M6.74419 5.54297V6.18164C6.74419 6.37695 6.67284 6.55078 6.53014 6.70312C6.38743 6.85547 6.20368 6.97363 5.97887 7.05762C5.75407 7.1416 5.5234 7.20508 5.28686 7.24805C5.05032 7.29102 4.82063 7.3125 4.59778 7.3125C3.7963 7.3125 3.12676 7.04102 2.58918 6.49805C2.0516 5.95508 1.78281 5.2793 1.78281 4.4707C1.78281 3.67773 2.04867 3.01562 2.58039 2.48438C3.1121 1.95313 3.77479 1.6875 4.56846 1.6875C4.70139 1.6875 4.84898 1.69629 5.01123 1.71387C5.17348 1.73145 5.35528 1.7666 5.55663 1.81934C5.75798 1.87207 5.9388 1.93848 6.0991 2.01855C6.25939 2.09863 6.39428 2.20898 6.50375 2.34961C6.61322 2.49023 6.66795 2.64844 6.66795 2.82422V3.46289C6.66795 3.52539 6.63668 3.55664 6.57412 3.55664H5.88211C5.81955 3.55664 5.78828 3.52539 5.78828 3.46289V3.05273C5.78828 2.88477 5.66023 2.75293 5.40415 2.65723C5.14807 2.56152 4.87928 2.51367 4.59778 2.51367C4.05042 2.51367 3.60374 2.69238 3.25774 3.0498C2.91173 3.40723 2.73873 3.87109 2.73873 4.44141C2.73873 5.03125 2.9176 5.51855 3.27533 5.90332C3.63307 6.28809 4.08952 6.48047 4.6447 6.48047C4.91055 6.48047 5.18032 6.43359 5.454 6.33984C5.72768 6.24609 5.86451 6.11719 5.86451 5.95312V5.54297C5.86451 5.51563 5.87331 5.49316 5.8909 5.47559C5.9085 5.45801 5.92902 5.44922 5.95248 5.44922H6.65036C6.67382 5.44922 6.69532 5.45801 6.71487 5.47559C6.73442 5.49316 6.74419 5.51563 6.74419 5.54297ZM4.50395 0.75C3.99569 0.75 3.50991 0.849609 3.04662 1.04883C2.58332 1.24805 2.18453 1.51465 1.85025 1.84863C1.51598 2.18262 1.24914 2.58105 1.04975 3.04395C0.850355 3.50684 0.750658 3.99219 0.750658 4.5C0.750658 5.00781 0.850355 5.49316 1.04975 5.95605C1.24914 6.41895 1.51598 6.81738 1.85025 7.15137C2.18453 7.48535 2.58332 7.75195 3.04662 7.95117C3.50991 8.15039 3.99569 8.25 4.50395 8.25C5.01221 8.25 5.49798 8.15039 5.96128 7.95117C6.42458 7.75195 6.82336 7.48535 7.15764 7.15137C7.49192 6.81738 7.75875 6.41895 7.95815 5.95605C8.15754 5.49316 8.25724 5.00781 8.25724 4.5C8.25724 3.99219 8.15754 3.50684 7.95815 3.04395C7.75875 2.58105 7.49192 2.18262 7.15764 1.84863C6.82336 1.51465 6.42458 1.24805 5.96128 1.04883C5.49798 0.849609 5.01221 0.75 4.50395 0.75ZM9.00789 4.5C9.00789 5.31641 8.80655 6.06934 8.40385 6.75879C8.00115 7.44824 7.45478 7.99414 6.76472 8.39648C6.07466 8.79883 5.32107 9 4.50395 9C3.68682 9 2.93323 8.79883 2.24318 8.39648C1.55312 7.99414 1.00674 7.44824 0.604045 6.75879C0.201348 6.06934 0 5.31641 0 4.5C0 3.68359 0.201348 2.93066 0.604045 2.24121C1.00674 1.55176 1.55312 1.00586 2.24318 0.603516C2.93323 0.201172 3.68682 0 4.50395 0C5.32107 0 6.07466 0.201172 6.76472 0.603516C7.45478 1.00586 8.00115 1.55176 8.40385 2.24121C8.80655 2.93066 9.00789 3.68359 9.00789 4.5Z" fill="#8692A3"/>
</g>
<defs>
<clipPath id="clip0_1896_1673">
<rect width="9.00789" height="9" fill="white"/>
</clipPath>
</defs>
</svg>
