<svg width="24" height="24" viewBox="0 0 24 24" fill="none" xmlns="http://www.w3.org/2000/svg">
<path d="M12.7506 15.0217V9.48299L20.5609 5.93314C20.6921 5.8736 20.8034 5.77753 20.8815 5.65641C20.9595 5.53529 21.001 5.39426 21.001 5.25018C21.001 5.10609 20.9595 4.96506 20.8815 4.84394C20.8034 4.72282 20.6921 4.62675 20.5609 4.56721L12.3109 0.817207C12.1967 0.765281 12.0712 0.742856 11.946 0.751988C11.8209 0.761121 11.7 0.801518 11.5945 0.869479C11.489 0.93744 11.4022 1.03079 11.3421 1.14098C11.282 1.25117 11.2506 1.37467 11.2506 1.50018V8.98424C11.2506 8.99502 11.2506 9.00627 11.2506 9.01705V15.0217C11.5006 15.0077 11.7506 15.0005 12.0006 15.0002C12.2506 14.9999 12.5006 15.0071 12.7506 15.0217Z" fill="#F3F8FF"/>
<path d="M21.7192 21.4455C21.318 19.4369 20.0734 17.7546 18.1201 16.5799C16.5967 15.6635 14.7137 15.1127 12.7506 15.0002V18.7385C12.7506 18.9374 12.6716 19.1281 12.5309 19.2688C12.3903 19.4094 12.1995 19.4885 12.0006 19.4885C11.8017 19.4885 11.6109 19.4094 11.4703 19.2688C11.3296 19.1281 11.2506 18.9374 11.2506 18.7385V15.0002C9.28749 15.1127 7.40452 15.6635 5.88108 16.5799C3.9278 17.7546 2.68327 19.4369 2.28202 21.4455C2.23515 21.6662 2.23792 21.8946 2.29013 22.1141C2.34234 22.3337 2.44268 22.5389 2.58389 22.7149C2.86608 23.0627 3.28186 23.2502 3.75061 23.2502H20.2506C20.7194 23.2502 21.1356 23.0603 21.4178 22.7149C21.5589 22.5388 21.6592 22.3336 21.7113 22.1141C21.7634 21.8946 21.7661 21.6662 21.7192 21.4455Z" fill="#F3F8FF"/>
</svg>
