<svg width="16" height="16" viewBox="0 0 16 16" fill="none" xmlns="http://www.w3.org/2000/svg">
<g clip-path="url(#clip0_1896_25713)">
<path d="M13.9998 0.999268C14.265 0.999268 14.5193 1.10462 14.7069 1.29216C14.8944 1.4797 14.9998 1.73405 14.9998 1.99927V13.9993C14.9998 14.2645 14.8944 14.5188 14.7069 14.7064C14.5193 14.8939 14.265 14.9993 13.9998 14.9993H1.99976C1.73454 14.9993 1.48019 14.8939 1.29265 14.7064C1.10511 14.5188 0.999756 14.2645 0.999756 13.9993V1.99927C0.999756 1.73405 1.10511 1.4797 1.29265 1.29216C1.48019 1.10462 1.73454 0.999268 1.99976 0.999268H13.9998ZM1.99976 -0.000732422C1.46932 -0.000732422 0.960615 0.209981 0.585542 0.585054C0.21047 0.960127 -0.000244141 1.46883 -0.000244141 1.99927V13.9993C-0.000244141 14.5297 0.21047 15.0384 0.585542 15.4135C0.960615 15.7886 1.46932 15.9993 1.99976 15.9993H13.9998C14.5302 15.9993 15.0389 15.7886 15.414 15.4135C15.789 15.0384 15.9998 14.5297 15.9998 13.9993V1.99927C15.9998 1.46883 15.789 0.960127 15.414 0.585054C15.0389 0.209981 14.5302 -0.000732422 13.9998 -0.000732422H1.99976Z" fill="white"/>
<path d="M7.99976 3.99927C8.13236 3.99927 8.25954 4.05195 8.35331 4.14571C8.44708 4.23948 8.49976 4.36666 8.49976 4.49927V7.49927H11.4998C11.6324 7.49927 11.7595 7.55195 11.8533 7.64571C11.9471 7.73948 11.9998 7.86666 11.9998 7.99927C11.9998 8.13188 11.9471 8.25905 11.8533 8.35282C11.7595 8.44659 11.6324 8.49927 11.4998 8.49927H8.49976V11.4993C8.49976 11.6319 8.44708 11.7591 8.35331 11.8528C8.25954 11.9466 8.13236 11.9993 7.99976 11.9993C7.86715 11.9993 7.73997 11.9466 7.6462 11.8528C7.55243 11.7591 7.49976 11.6319 7.49976 11.4993V8.49927H4.49976C4.36715 8.49927 4.23997 8.44659 4.1462 8.35282C4.05243 8.25905 3.99976 8.13188 3.99976 7.99927C3.99976 7.86666 4.05243 7.73948 4.1462 7.64571C4.23997 7.55195 4.36715 7.49927 4.49976 7.49927H7.49976V4.49927C7.49976 4.36666 7.55243 4.23948 7.6462 4.14571C7.73997 4.05195 7.86715 3.99927 7.99976 3.99927Z" fill="white"/>
</g>
<defs>
<clipPath id="clip0_1896_25713">
<rect width="16" height="16" fill="white"/>
</clipPath>
</defs>
</svg>
