<svg width="21" height="20" viewBox="0 0 21 20" fill="none" xmlns="http://www.w3.org/2000/svg">
<path d="M15.6774 12.9301C16.8878 11.2785 17.4299 9.23074 17.1953 7.19656C16.9607 5.16239 15.9667 3.2918 14.4121 1.95904C12.8575 0.626277 10.8571 -0.0703699 8.81095 0.00847151C6.7648 0.0873129 4.82388 0.935828 3.37649 2.38426C1.92909 3.83269 1.08196 5.77422 1.00459 7.82042C0.92721 9.86661 1.62529 11.8666 2.95916 13.4202C4.29303 14.9738 6.16433 15.9665 8.19867 16.1996C10.233 16.4328 12.2804 15.8892 13.9312 14.6776H13.9299C13.9674 14.7276 14.0074 14.7751 14.0524 14.8214L18.8649 19.6339C19.0993 19.8684 19.4172 20.0003 19.7488 20.0004C20.0804 20.0005 20.3985 19.8689 20.633 19.6345C20.8676 19.4001 20.9994 19.0822 20.9995 18.7506C20.9996 18.419 20.868 18.1009 20.6336 17.8664L15.8212 13.0539C15.7765 13.0086 15.7284 12.9669 15.6774 12.9289V12.9301ZM15.9999 8.12513C15.9999 9.02796 15.8221 9.92196 15.4766 10.7561C15.1311 11.5902 14.6247 12.3481 13.9863 12.9865C13.3479 13.6249 12.59 14.1313 11.7558 14.4768C10.9217 14.8223 10.0277 15.0001 9.1249 15.0001C8.22206 15.0001 7.32807 14.8223 6.49395 14.4768C5.65984 14.1313 4.90194 13.6249 4.26354 12.9865C3.62514 12.3481 3.11873 11.5902 2.77323 10.7561C2.42773 9.92196 2.2499 9.02796 2.2499 8.12513C2.2499 6.30176 2.97423 4.55308 4.26354 3.26377C5.55285 1.97445 7.30154 1.25013 9.1249 1.25013C10.9483 1.25013 12.6969 1.97445 13.9863 3.26377C15.2756 4.55308 15.9999 6.30176 15.9999 8.12513V8.12513Z" fill="#8392A5"/>
</svg>
