<svg width="16" height="16" viewBox="0 0 16 16" fill="none" xmlns="http://www.w3.org/2000/svg">
<g clip-path="url(#clip0_1504_17907)">
<path d="M0.146149 4.15264C0.239913 4.05891 0.367067 4.00625 0.499649 4.00625C0.632231 4.00625 0.759385 4.05891 0.853149 4.15264L3.99965 7.29914L7.14615 4.15264C7.19227 4.10489 7.24745 4.0668 7.30845 4.04059C7.36945 4.01439 7.43506 4.0006 7.50145 4.00002C7.56784 3.99944 7.63368 4.01209 7.69513 4.03723C7.75658 4.06237 7.8124 4.0995 7.85935 4.14645C7.90629 4.19339 7.94342 4.24922 7.96856 4.31067C7.9937 4.37212 8.00635 4.43796 8.00578 4.50434C8.0052 4.57073 7.99141 4.63634 7.9652 4.69735C7.939 4.75835 7.90091 4.81352 7.85315 4.85964L4.70665 8.00614L7.85315 11.1526C7.94423 11.2469 7.99463 11.3732 7.99349 11.5043C7.99235 11.6354 7.93976 11.7608 7.84706 11.8536C7.75435 11.9463 7.62895 11.9988 7.49785 12C7.36675 12.0011 7.24045 11.9507 7.14615 11.8596L3.99965 8.71314L0.853149 11.8596C0.758848 11.9507 0.632547 12.0011 0.501449 12C0.37035 11.9988 0.244944 11.9463 0.15224 11.8536C0.0595357 11.7608 0.00695128 11.6354 0.00581207 11.5043C0.00467286 11.3732 0.0550701 11.2469 0.146149 11.1526L3.29265 8.00614L0.146149 4.85964C0.0524136 4.76588 -0.000244141 4.63873 -0.000244141 4.50614C-0.000244141 4.37356 0.0524136 4.24641 0.146149 4.15264Z" fill="black"/>
</g>
<defs>
<clipPath id="clip0_1504_17907">
<rect width="16" height="16" fill="white"/>
</clipPath>
</defs>
</svg>
