<svg width="19" height="19" viewBox="0 0 19 19" fill="none" xmlns="http://www.w3.org/2000/svg">
<path d="M1.17444 5.51721C1.22959 5.46192 1.29511 5.41805 1.36725 5.38811C1.43938 5.35818 1.51671 5.34277 1.59481 5.34277C1.67291 5.34277 1.75024 5.35818 1.82238 5.38811C1.89451 5.41805 1.96003 5.46192 2.01519 5.51721L5.15731 8.66052L8.29944 5.51721C8.35464 5.46201 8.42018 5.41821 8.49231 5.38834C8.56443 5.35846 8.64174 5.34308 8.71981 5.34308C8.79788 5.34308 8.87519 5.35846 8.94732 5.38834C9.01944 5.41821 9.08498 5.46201 9.14019 5.51721C9.19539 5.57241 9.23918 5.63795 9.26906 5.71008C9.29893 5.78221 9.31431 5.85951 9.31431 5.93758C9.31431 6.01566 9.29893 6.09296 9.26906 6.16509C9.23918 6.23722 9.19539 6.30276 9.14019 6.35796L5.99687 9.50008L9.14019 12.6422C9.19539 12.6974 9.23918 12.763 9.26906 12.8351C9.29893 12.9072 9.31431 12.9845 9.31431 13.0626C9.31431 13.1407 9.29893 13.218 9.26906 13.2901C9.23918 13.3622 9.19539 13.4278 9.14019 13.483C9.08498 13.5382 9.01944 13.582 8.94732 13.6118C8.87519 13.6417 8.79788 13.6571 8.71981 13.6571C8.64174 13.6571 8.56443 13.6417 8.49231 13.6118C8.42018 13.582 8.35464 13.5382 8.29944 13.483L5.15731 10.3396L2.01519 13.483C1.95998 13.5382 1.89444 13.582 1.82232 13.6118C1.75019 13.6417 1.67288 13.6571 1.59481 13.6571C1.51674 13.6571 1.43943 13.6417 1.36731 13.6118C1.29518 13.582 1.22964 13.5382 1.17444 13.483C1.11923 13.4278 1.07544 13.3622 1.04556 13.2901C1.01569 13.218 1.00031 13.1407 1.00031 13.0626C1.00031 12.9845 1.01569 12.9072 1.04556 12.8351C1.07544 12.763 1.11923 12.6974 1.17444 12.6422L4.31775 9.50008L1.17444 6.35796C1.11914 6.30281 1.07527 6.23728 1.04534 6.16515C1.01541 6.09301 1 6.01568 1 5.93758C1 5.85949 1.01541 5.78215 1.04534 5.71002C1.07527 5.63788 1.11914 5.57236 1.17444 5.51721Z" fill="#596882"/>
</svg>
