<svg width="16" height="16" viewBox="0 0 16 16" fill="none" xmlns="http://www.w3.org/2000/svg">
<g clip-path="url(#clip0_1896_6123)">
<path d="M0.292664 0.292105C0.480192 0.104634 0.7345 -0.000681838 0.999664 -0.000681838C1.26483 -0.000681838 1.51914 0.104634 1.70666 0.292105L7.99966 6.5851L14.2927 0.292105C14.3849 0.196594 14.4953 0.120412 14.6173 0.0680032C14.7393 0.0155942 14.8705 -0.011992 15.0033 -0.0131458C15.136 -0.0142997 15.2677 0.0110021 15.3906 0.0612829C15.5135 0.111564 15.6252 0.185817 15.7191 0.27971C15.813 0.373602 15.8872 0.485254 15.9375 0.608151C15.9878 0.731047 16.0131 0.862727 16.0119 0.995506C16.0108 1.12829 15.9832 1.25951 15.9308 1.38151C15.8784 1.50351 15.8022 1.61386 15.7067 1.7061L9.41366 7.9991L15.7067 14.2921C15.8888 14.4807 15.9896 14.7333 15.9873 14.9955C15.9851 15.2577 15.8799 15.5085 15.6945 15.6939C15.5091 15.8793 15.2583 15.9845 14.9961 15.9868C14.7339 15.9891 14.4813 15.8883 14.2927 15.7061L7.99966 9.4131L1.70666 15.7061C1.51806 15.8883 1.26546 15.9891 1.00326 15.9868C0.741066 15.9845 0.490254 15.8793 0.304846 15.6939C0.119438 15.5085 0.0142688 15.2577 0.0119903 14.9955C0.00971192 14.7333 0.110506 14.4807 0.292664 14.2921L6.58566 7.9991L0.292664 1.7061C0.105193 1.51858 -0.00012207 1.26427 -0.00012207 0.999105C-0.00012207 0.73394 0.105193 0.479632 0.292664 0.292105Z" fill="black"/>
</g>
<defs>
<clipPath id="clip0_1896_6123">
<rect width="16" height="16" fill="white"/>
</clipPath>
</defs>
</svg>
