<svg width="24" height="24" viewBox="0 0 24 24" fill="none" xmlns="http://www.w3.org/2000/svg">
<path d="M16.25 12.25H19.9392H21.1462L20.2928 13.1035L17.8291 15.5676C17.7863 15.6145 17.7628 15.676 17.7636 15.7396C17.7644 15.8048 17.7907 15.8671 17.8368 15.9132C17.8829 15.9593 17.9452 15.9856 18.0104 15.9864C18.074 15.9872 18.1355 15.9637 18.1823 15.9209L21.9265 12.1767C21.9265 12.1767 21.9266 12.1766 21.9266 12.1766M16.25 12.25L21.9266 12.1766M16.25 12.25V11.75H19.9392H21.1462L20.2928 10.8965L17.8291 8.43234C17.7863 8.38549 17.7628 8.324 17.7636 8.26038C17.7644 8.19519 17.7907 8.1329 17.8368 8.0868C17.8829 8.0407 17.9452 8.01443 18.0104 8.0136C18.074 8.01278 18.1355 8.03626 18.1824 8.07915L21.9265 11.8233M16.25 12.25L21.9265 11.8233M21.9266 12.1766C21.9734 12.1297 21.9997 12.0662 21.9997 12C21.9997 11.9338 21.9734 11.8703 21.9266 11.8234M21.9266 12.1766V11.8234M21.9266 11.8234L21.9265 11.8233M21.9266 11.8234L21.9265 11.8233M15.25 6.37553V10.75H8.95312C8.6216 10.75 8.30366 10.8817 8.06924 11.1161C7.83482 11.3505 7.70312 11.6685 7.70312 12C7.70312 12.3315 7.83482 12.6495 8.06924 12.8839C8.30366 13.1183 8.62161 13.25 8.95312 13.25H15.25V17.6245C15.2494 18.188 15.0253 18.7283 14.6268 19.1268C14.2283 19.5253 13.688 19.7494 13.1245 19.75H4.12553C3.56199 19.7494 3.0217 19.5253 2.62322 19.1268C2.2248 18.7284 2.00067 18.1882 2 17.6247V6.37527C2.00067 5.81182 2.2248 5.27164 2.62322 4.87322C3.02164 4.4748 3.56182 4.25067 4.12527 4.25H13.1247C13.6882 4.25067 14.2284 4.4748 14.6268 4.87322C15.0253 5.2717 15.2494 5.81199 15.25 6.37553Z" stroke="white"/>
</svg>
