<svg width="20" height="20" viewBox="0 0 20 20" fill="none" xmlns="http://www.w3.org/2000/svg">
<path d="M7.53101 16.75H7.52227H7.50032H7.5V16.25C7.33803 16.2501 7.18234 16.1873 7.06575 16.0749C6.94916 15.9624 6.88077 15.8091 6.875 15.6473L7.53101 16.75ZM7.53101 16.75L7.53975 16.7497C7.68752 16.7445 7.83282 16.7103 7.96734 16.6489C8.10186 16.5875 8.22296 16.5003 8.32372 16.3921C8.42448 16.2838 8.50293 16.1568 8.55457 16.0183C8.60618 15.8798 8.63 15.7326 8.62468 15.5849L7.53101 16.75ZM6.37532 15.6651L6.06282 6.91511L6.06282 6.91507C6.05219 6.61678 6.16049 6.32649 6.3639 6.10806C6.5673 5.88963 6.84915 5.76094 7.14743 5.75032C7.44572 5.73969 7.73601 5.84799 7.95444 6.0514C8.17286 6.25479 8.30154 6.53662 8.31218 6.83489L8.31218 6.83493M6.37532 15.6651L7.8125 6.85273L8.31218 6.83493M6.37532 15.6651C6.37532 15.6651 6.37532 15.6651 6.37532 15.6651L6.37532 15.6651ZM8.31218 6.83493L8.62467 15.5846L8.31218 6.83493ZM12.375 4.25H11.875H8.125H7.625V3.75V2.81466V2.8125H8.125C8.12453 2.77133 8.13229 2.73048 8.14783 2.69236C8.16337 2.65423 8.18637 2.61959 8.21548 2.59048C8.24459 2.56137 8.27923 2.53837 8.31736 2.52283C8.35548 2.50729 8.39633 2.49953 8.4375 2.5L12.375 4.25ZM12.375 4.25V3.75V2.81473V4.25ZM12.4684 16.75L12.4595 16.7497C12.3118 16.7444 12.1666 16.7101 12.0322 16.6487C11.8977 16.5873 11.7767 16.5 11.676 16.3918C11.5753 16.2836 11.497 16.1566 11.4454 16.0181C11.3938 15.8797 11.37 15.7325 11.3753 15.5849C11.3753 15.5848 11.3753 15.5847 11.3753 15.5846L11.6878 6.83493L11.6878 6.83489L12.1875 6.85273C12.1904 6.77066 12.2095 6.68996 12.2436 6.61525C12.2777 6.54054 12.3262 6.47328 12.3863 6.41731C12.4464 6.36134 12.5169 6.31776 12.5939 6.28905C12.6708 6.26035 12.7527 6.24708 12.8348 6.25C12.9168 6.25292 12.9975 6.27199 13.0722 6.3061C13.147 6.34021 13.2142 6.3887 13.2702 6.4488C13.3262 6.50891 13.3697 6.57945 13.3984 6.65639C13.4272 6.73334 13.4404 6.81519 13.4375 6.89727L12.4684 16.75ZM12.4684 16.75H12.4773H12.4997M12.4684 16.75H12.4997M12.4997 16.75H12.5V16.25L12.4997 16.75ZM12.625 3.75V4.25H13.125H16.875C16.9082 4.25 16.9399 4.26317 16.9634 4.28661C16.9868 4.31005 17 4.34185 17 4.375C17 4.40815 16.9868 4.43995 16.9634 4.46339C16.9399 4.48683 16.9082 4.5 16.875 4.5H16.2109H15.7411L15.7119 4.96891L14.9697 16.8829C14.9697 16.8829 14.9697 16.8829 14.9697 16.883C14.9185 17.702 14.3315 18.25 13.5938 18.25H6.40625C5.67205 18.25 5.07281 17.6837 5.03055 16.8845L5.03057 16.8845L5.03028 16.8798L4.28809 4.9689L4.25888 4.5H3.78906H3.125C3.09185 4.5 3.06005 4.48683 3.03661 4.46339C3.01317 4.43995 3 4.40815 3 4.375C3 4.34185 3.01317 4.31005 3.03661 4.28661C3.06005 4.26317 3.09185 4.25 3.125 4.25H6.875H7.375V3.75V2.8125C7.375 2.53071 7.48694 2.26046 7.6862 2.0612C7.88546 1.86194 8.15571 1.75 8.4375 1.75H11.5625C11.8443 1.75 12.1145 1.86194 12.3138 2.0612C12.5131 2.26046 12.625 2.53071 12.625 2.8125V3.75ZM11.5603 2H8.43969L11.875 2.8125C11.8755 2.77133 11.8677 2.73048 11.8522 2.69236C11.8366 2.65423 11.8136 2.61959 11.7845 2.59048C11.7554 2.56137 11.7208 2.53837 11.6826 2.52283C11.6445 2.50729 11.6037 2.49953 11.5625 2.5V2H11.5603ZM10.7955 16.4205C11.0065 16.2095 11.125 15.9234 11.125 15.625V6.875C11.125 6.57663 11.0065 6.29048 10.7955 6.0795C10.5845 5.86853 10.2984 5.75 10 5.75C9.70163 5.75 9.41548 5.86853 9.2045 6.0795C8.99353 6.29048 8.875 6.57663 8.875 6.875V15.625C8.875 15.9234 8.99353 16.2095 9.2045 16.4205C9.41548 16.6315 9.70163 16.75 10 16.75C10.2984 16.75 10.5845 16.6315 10.7955 16.4205Z" fill="#DC3545" stroke="#DC3545"/>
</svg>
