<svg width="16" height="16" viewBox="0 0 16 16" fill="none" xmlns="http://www.w3.org/2000/svg">
<g clip-path="url(#clip0_1896_25724)">
<path d="M7.99976 14.9993C6.14324 14.9993 4.36276 14.2618 3.05001 12.949C1.73725 11.6363 0.999756 9.85578 0.999756 7.99927C0.999756 6.14275 1.73725 4.36227 3.05001 3.04952C4.36276 1.73677 6.14324 0.999268 7.99976 0.999268C9.85627 0.999268 11.6367 1.73677 12.9495 3.04952C14.2623 4.36227 14.9998 6.14275 14.9998 7.99927C14.9998 9.85578 14.2623 11.6363 12.9495 12.949C11.6367 14.2618 9.85627 14.9993 7.99976 14.9993ZM7.99976 15.9993C10.1215 15.9993 12.1563 15.1564 13.6566 13.6561C15.1569 12.1558 15.9998 10.121 15.9998 7.99927C15.9998 5.87754 15.1569 3.8427 13.6566 2.34241C12.1563 0.842122 10.1215 -0.000732422 7.99976 -0.000732422C5.87802 -0.000732422 3.84319 0.842122 2.3429 2.34241C0.842611 3.8427 -0.000244141 5.87754 -0.000244141 7.99927C-0.000244141 10.121 0.842611 12.1558 2.3429 13.6561C3.84319 15.1564 5.87802 15.9993 7.99976 15.9993Z" fill="white"/>
<path d="M7.99976 3.99927C8.13236 3.99927 8.25954 4.05195 8.35331 4.14571C8.44708 4.23948 8.49976 4.36666 8.49976 4.49927V7.49927H11.4998C11.6324 7.49927 11.7595 7.55195 11.8533 7.64571C11.9471 7.73948 11.9998 7.86666 11.9998 7.99927C11.9998 8.13188 11.9471 8.25905 11.8533 8.35282C11.7595 8.44659 11.6324 8.49927 11.4998 8.49927H8.49976V11.4993C8.49976 11.6319 8.44708 11.7591 8.35331 11.8528C8.25954 11.9466 8.13236 11.9993 7.99976 11.9993C7.86715 11.9993 7.73997 11.9466 7.6462 11.8528C7.55243 11.7591 7.49976 11.6319 7.49976 11.4993V8.49927H4.49976C4.36715 8.49927 4.23997 8.44659 4.1462 8.35282C4.05243 8.25905 3.99976 8.13188 3.99976 7.99927C3.99976 7.86666 4.05243 7.73948 4.1462 7.64571C4.23997 7.55195 4.36715 7.49927 4.49976 7.49927H7.49976V4.49927C7.49976 4.36666 7.55243 4.23948 7.6462 4.14571C7.73997 4.05195 7.86715 3.99927 7.99976 3.99927Z" fill="white"/>
</g>
<defs>
<clipPath id="clip0_1896_25724">
<rect width="16" height="16" fill="white"/>
</clipPath>
</defs>
</svg>
