<svg width="20" height="21" viewBox="0 0 20 21" fill="none" xmlns="http://www.w3.org/2000/svg">
<path d="M0.666504 3.1665C0.666504 2.06193 1.56193 1.1665 2.6665 1.1665H10.6665C11.7711 1.1665 12.6665 2.06193 12.6665 3.1665V14.4998C12.6665 15.6044 11.7711 16.4998 10.6665 16.4998H2.6665C1.56193 16.4998 0.666504 15.6044 0.666504 14.4998V3.1665Z" fill="url(#paint0_linear_1896_10073)"/>
<path d="M3.33301 4.83301C3.33301 4.28072 3.78072 3.83301 4.33301 3.83301H8.99967C9.55196 3.83301 9.99967 4.28072 9.99967 4.83301V4.83301C9.99967 5.38529 9.55196 5.83301 8.99967 5.83301H4.33301C3.78072 5.83301 3.33301 5.38529 3.33301 4.83301V4.83301Z" fill="white"/>
<path d="M3.33301 8.83301C3.33301 8.28072 3.78072 7.83301 4.33301 7.83301H6.33301C6.88529 7.83301 7.33301 8.28072 7.33301 8.83301V8.83301C7.33301 9.38529 6.88529 9.83301 6.33301 9.83301H4.33301C3.78072 9.83301 3.33301 9.38529 3.33301 8.83301V8.83301Z" fill="white"/>
<path d="M3.33301 12.8333C3.33301 12.281 3.78072 11.8333 4.33301 11.8333V11.8333C4.88529 11.8333 5.33301 12.281 5.33301 12.8333V12.8333C5.33301 13.3855 4.88529 13.8333 4.33301 13.8333V13.8333C3.78072 13.8333 3.33301 13.3855 3.33301 12.8333V12.8333Z" fill="white"/>
<path d="M19.333 13.833C19.333 17.1467 16.6467 19.833 13.333 19.833C10.0193 19.833 7.33301 17.1467 7.33301 13.833C7.33301 10.5193 10.0193 7.83301 13.333 7.83301C16.6467 7.83301 19.333 10.5193 19.333 13.833Z" fill="url(#paint1_linear_1896_10073)"/>
<path fill-rule="evenodd" clip-rule="evenodd" d="M13.9998 9.83293C13.9998 9.46474 13.7014 9.16626 13.3332 9.16626C12.965 9.16626 12.6665 9.46474 12.6665 9.83293V13.8329C12.6665 14.2011 12.965 14.4996 13.3332 14.4996H17.3332C17.7014 14.4996 17.9998 14.2011 17.9998 13.8329C17.9998 13.4647 17.7014 13.1663 17.3332 13.1663H13.9998V9.83293Z" fill="white"/>
<defs>
<linearGradient id="paint0_linear_1896_10073" x1="6.6665" y1="1.1665" x2="6.6665" y2="16.4998" gradientUnits="userSpaceOnUse">
<stop stop-color="#FECF3E"/>
<stop offset="1" stop-color="#FFB600"/>
</linearGradient>
<linearGradient id="paint1_linear_1896_10073" x1="13.333" y1="7.83301" x2="13.333" y2="19.833" gradientUnits="userSpaceOnUse">
<stop stop-color="#FF8500"/>
<stop offset="1" stop-color="#FF6D00"/>
</linearGradient>
</defs>
</svg>
