<svg width="82" height="32" viewBox="0 0 82 32" fill="none" xmlns="http://www.w3.org/2000/svg">
<g clip-path="url(#clip0_1896_22078)">
<path fill-rule="evenodd" clip-rule="evenodd" d="M44.8559 0.516826V4.82551H40.449C40.8394 4.18717 40.9873 4.21469 41.5041 3.74035C42.4074 2.91146 44.1633 0.918159 44.8559 0.516826ZM81.9998 16.8572V17.8779C81.9216 19.0927 81.5648 20.3035 80.9333 21.4094C79.3701 24.1468 75.6279 25.5071 72.3991 25.5071C69.6045 25.5071 68.4331 25.0068 66.1282 24.446C65.2975 24.2439 65.3188 24.5042 65.126 23.6478C65.0197 23.1761 64.9613 22.5746 64.8463 22.0582C64.6754 21.2906 64.2301 19.8807 64.2148 19.1303C66.7656 19.7811 69.2618 20.6815 72.3991 20.6815C74.2745 20.6815 77.1208 20.0875 77.1208 18.0963C77.1208 14.6287 71.7333 14.5946 68.8726 13.5129C66.206 12.5044 64.6182 10.955 64.4909 7.98824C64.4348 6.67861 64.6717 5.92332 64.687 5.17046H58.0766V22.0604C58.0766 24.4281 58.6024 23.9708 59.1783 25.1626H52.0958C52.1851 23.9888 52.6675 25.0453 52.9596 23.1786C53.0969 22.3008 53.2048 21.2823 53.2012 20.3428C53.1967 19.1675 53.2057 18.7587 53.2012 17.5834L53.0402 5.1704H45.1707V23.2668C45.1707 24.4312 45.8836 24.2137 46.115 25.1626H38.8751C39.1057 24.2169 39.6074 24.5589 39.8032 23.5937C40.1498 21.8857 39.9768 5.71203 39.9768 2.75754C39.9768 0.884619 39.4895 1.00486 38.875 0H81.8424C81.677 0.678252 80.9076 1.49798 80.3794 2.18963C79.8387 2.89777 79.2814 3.29067 78.7614 4.03707C78.0317 5.08438 77.9827 5.24824 76.3309 5.17846C74.5752 5.10438 69.4086 4.03656 69.4086 7.06616C69.4086 9.25475 78.0688 9.61793 80.4541 12.7227C81.3916 13.9429 81.9041 15.382 81.9998 16.8572Z" fill="#013880"/>
<path fill-rule="evenodd" clip-rule="evenodd" d="M3.61996 11.7197C3.47241 11.0262 3.20757 10.4376 3.14782 9.65155C1.65756 9.65155 0 9.33079 0 10.1687V25.1627H4.09216V16.7177C4.09216 13.6383 5.22906 12.9261 7.08253 12.9261C8.3399 12.9261 8.81383 14.448 8.81383 15.856V25.1626H12.7486V17.4071C12.7486 14.0318 13.5659 12.9261 15.8964 12.9261C17.4644 12.9261 17.6276 15.2887 17.6276 17.0624V25.1627H21.5624V15.6837C21.5624 12.5044 20.5975 9.47923 17.3129 9.47923C15.8063 9.47923 14.3838 9.4045 13.1545 10.7855L12.2764 11.7197C10.8961 10.6124 11.6192 9.47923 7.39733 9.47923C5.0119 9.47923 3.98187 11.4293 3.61996 11.7197Z" fill="#013880"/>
<path fill-rule="evenodd" clip-rule="evenodd" d="M25.9694 28.4371L24.2381 28.2648V31.7117C30.6025 33.3354 31.9306 27.76 33.3905 23.4652L36.9197 13.1973C37.1581 12.5158 37.2981 12.1129 37.5177 11.4393C37.7467 10.7369 37.9398 10.3498 38.0884 9.65137H33.8389C33.7414 10.932 30.8485 18.7435 30.8485 20.8539H30.6911C30.6911 19.1454 29.7197 16.5418 29.2946 15.1446C29.0078 14.2019 28.7544 13.3735 28.4676 12.4309C28.2015 11.5565 27.9234 10.438 27.5433 9.65137H23.4512C23.5251 10.6244 27.3309 20.6173 27.9033 22.1832C28.7841 24.5932 29.3969 25.0153 28.0862 27.1358C27.6471 27.8463 26.9821 28.4371 25.9694 28.4371Z" fill="#013880"/>
</g>
<defs>
<clipPath id="clip0_1896_22078">
<rect width="82" height="32" fill="white"/>
</clipPath>
</defs>
</svg>
