<svg width="30" height="30" viewBox="0 0 30 30" fill="none" xmlns="http://www.w3.org/2000/svg">
<path d="M7.01697 25.0735L7.01516 25.0725C6.47686 24.7674 6.12842 24.1651 6.12842 23.496V6.50377C6.12842 5.83254 6.47663 5.23242 7.01516 4.92725L7.01516 4.92726L7.01779 4.92575C7.25983 4.78665 7.53478 4.71512 7.81392 4.71863C8.09306 4.72214 8.36612 4.80057 8.60458 4.94571L8.60458 4.94572L8.60775 4.94762L23.1255 13.6378C23.3546 13.7824 23.5435 13.9825 23.6746 14.2195C23.8066 14.458 23.8758 14.7261 23.8758 14.9987C23.8758 15.2712 23.8066 15.5393 23.6746 15.7778C23.5434 16.0149 23.3545 16.215 23.1255 16.3596L8.60538 25.0521L8.60353 25.0532C8.35912 25.201 8.07925 25.2797 7.79368 25.2811C7.52117 25.2804 7.25351 25.2088 7.01697 25.0735Z" fill="#BF6F06" stroke="#BF6F06"/>
</svg>
