<svg width="20" height="21" viewBox="0 0 20 21" fill="none" xmlns="http://www.w3.org/2000/svg">
<path d="M0.666504 3.1665C0.666504 2.06193 1.56193 1.1665 2.6665 1.1665H10.6665C11.7711 1.1665 12.6665 2.06193 12.6665 3.1665V15.1665C12.6665 16.2711 11.7711 17.1665 10.6665 17.1665H2.6665C1.56193 17.1665 0.666504 16.2711 0.666504 15.1665V3.1665Z" fill="url(#paint0_linear_1896_8851)"/>
<path d="M3.33301 4.49967C3.33301 4.13148 3.63148 3.83301 3.99967 3.83301H7.33301C7.7012 3.83301 7.99967 4.13148 7.99967 4.49967V4.49967C7.99967 4.86786 7.7012 5.16634 7.33301 5.16634H3.99967C3.63148 5.16634 3.33301 4.86786 3.33301 4.49967V4.49967Z" fill="white" fill-opacity="0.6"/>
<path d="M3.33301 7.16667C3.33301 6.79848 3.63148 6.5 3.99967 6.5H9.33301C9.7012 6.5 9.99967 6.79848 9.99967 7.16667V7.16667C9.99967 7.53486 9.7012 7.83333 9.33301 7.83333H3.99967C3.63148 7.83333 3.33301 7.53486 3.33301 7.16667V7.16667Z" fill="white" fill-opacity="0.6"/>
<path d="M3.33301 10.833C3.33301 10.2807 3.78072 9.83301 4.33301 9.83301H8.99967C9.55196 9.83301 9.99967 10.2807 9.99967 10.833V13.4997C9.99967 14.052 9.55196 14.4997 8.99967 14.4997H4.33301C3.78072 14.4997 3.33301 14.052 3.33301 13.4997V10.833Z" fill="white" fill-opacity="0.6"/>
<mask id="mask0_1896_8851" style="mask-type:alpha" maskUnits="userSpaceOnUse" x="0" y="1" width="13" height="17">
<path d="M0.666504 3.1665C0.666504 2.06193 1.56193 1.1665 2.6665 1.1665H10.6665C11.7711 1.1665 12.6665 2.06193 12.6665 3.1665V15.1665C12.6665 16.2711 11.7711 17.1665 10.6665 17.1665H2.6665C1.56193 17.1665 0.666504 16.2711 0.666504 15.1665V3.1665Z" fill="url(#paint1_linear_1896_8851)"/>
</mask>
<g mask="url(#mask0_1896_8851)">
<g filter="url(#filter0_f_1896_8851)">
<path d="M7.33301 7.1665C7.33301 6.06193 8.22844 5.1665 9.33301 5.1665H17.333C18.4376 5.1665 19.333 6.06193 19.333 7.1665V19.1665C19.333 20.2711 18.4376 21.1665 17.333 21.1665H9.33301C8.22844 21.1665 7.33301 20.2711 7.33301 19.1665V7.1665Z" fill="black" fill-opacity="0.4"/>
</g>
</g>
<path d="M7.33301 5.83301C7.33301 4.72844 8.22844 3.83301 9.33301 3.83301H17.333C18.4376 3.83301 19.333 4.72844 19.333 5.83301V17.833C19.333 18.9376 18.4376 19.833 17.333 19.833H9.33301C8.22844 19.833 7.33301 18.9376 7.33301 17.833V5.83301Z" fill="url(#paint2_linear_1896_8851)"/>
<path d="M10 7.16667C10 6.79848 10.2985 6.5 10.6667 6.5H14C14.3682 6.5 14.6667 6.79848 14.6667 7.16667V7.16667C14.6667 7.53486 14.3682 7.83333 14 7.83333H10.6667C10.2985 7.83333 10 7.53486 10 7.16667V7.16667Z" fill="white"/>
<path d="M10 9.83317C10 9.46498 10.2985 9.1665 10.6667 9.1665H16C16.3682 9.1665 16.6667 9.46498 16.6667 9.83317V9.83317C16.6667 10.2014 16.3682 10.4998 16 10.4998H10.6667C10.2985 10.4998 10 10.2014 10 9.83317V9.83317Z" fill="white"/>
<path d="M10 13.5C10 12.9477 10.4477 12.5 11 12.5H15.6667C16.219 12.5 16.6667 12.9477 16.6667 13.5V16.1667C16.6667 16.719 16.219 17.1667 15.6667 17.1667H11C10.4477 17.1667 10 16.719 10 16.1667V13.5Z" fill="white"/>
<defs>
<filter id="filter0_f_1896_8851" x="-2.66699" y="-4.8335" width="32" height="36" filterUnits="userSpaceOnUse" color-interpolation-filters="sRGB">
<feFlood flood-opacity="0" result="BackgroundImageFix"/>
<feBlend mode="normal" in="SourceGraphic" in2="BackgroundImageFix" result="shape"/>
<feGaussianBlur stdDeviation="5" result="effect1_foregroundBlur_1896_8851"/>
</filter>
<linearGradient id="paint0_linear_1896_8851" x1="6.6665" y1="1.1665" x2="6.6665" y2="17.1665" gradientUnits="userSpaceOnUse">
<stop stop-color="#0A85ED"/>
<stop offset="1" stop-color="#0C63E7"/>
</linearGradient>
<linearGradient id="paint1_linear_1896_8851" x1="6.6665" y1="1.1665" x2="6.6665" y2="17.1665" gradientUnits="userSpaceOnUse">
<stop stop-color="#0A85ED"/>
<stop offset="1" stop-color="#0C63E7"/>
</linearGradient>
<linearGradient id="paint2_linear_1896_8851" x1="13.333" y1="3.83301" x2="13.333" y2="19.833" gradientUnits="userSpaceOnUse">
<stop stop-color="#07C8F9"/>
<stop offset="1" stop-color="#09A6F3"/>
</linearGradient>
</defs>
</svg>
