<svg width="20" height="21" viewBox="0 0 20 21" fill="none" xmlns="http://www.w3.org/2000/svg">
<path d="M0.666504 3.83341C0.666504 2.36066 1.86041 1.16675 3.33317 1.16675H5.99984V19.8334H3.33317C1.86041 19.8334 0.666504 18.6395 0.666504 17.1667V3.83341Z" fill="url(#paint0_linear_1896_11811)"/>
<path d="M6 1.16675H16.6667C18.1394 1.16675 19.3333 2.36066 19.3333 3.83341V17.1667C19.3333 18.6395 18.1394 19.8334 16.6667 19.8334H6V1.16675Z" fill="url(#paint1_linear_1896_11811)"/>
<path d="M8 5.83333C8 5.09695 8.59695 4.5 9.33333 4.5H16C16.7364 4.5 17.3333 5.09695 17.3333 5.83333V5.83333C17.3333 6.56971 16.7364 7.16667 16 7.16667H9.33333C8.59695 7.16667 8 6.56971 8 5.83333V5.83333Z" fill="white"/>
<path d="M8 10.5001C8 9.7637 8.59695 9.16675 9.33333 9.16675H16C16.7364 9.16675 17.3333 9.7637 17.3333 10.5001V10.5001C17.3333 11.2365 16.7364 11.8334 16 11.8334H9.33333C8.59695 11.8334 8 11.2365 8 10.5001V10.5001Z" fill="white"/>
<path d="M12 15.1668C12 14.4304 12.597 13.8335 13.3333 13.8335H16C16.7364 13.8335 17.3333 14.4304 17.3333 15.1668V15.1668C17.3333 15.9032 16.7364 16.5002 16 16.5002H13.3333C12.597 16.5002 12 15.9032 12 15.1668V15.1668Z" fill="#0C63E7"/>
<defs>
<linearGradient id="paint0_linear_1896_11811" x1="3.33317" y1="1.16675" x2="3.33317" y2="19.8334" gradientUnits="userSpaceOnUse">
<stop stop-color="#0A85ED"/>
<stop offset="1" stop-color="#0C63E7"/>
</linearGradient>
<linearGradient id="paint1_linear_1896_11811" x1="12.6667" y1="1.16675" x2="12.6667" y2="19.8334" gradientUnits="userSpaceOnUse">
<stop stop-color="#07C8F9"/>
<stop offset="1" stop-color="#09A6F3"/>
</linearGradient>
</defs>
</svg>
