<svg width="23" height="23" viewBox="0 0 23 23" fill="none" xmlns="http://www.w3.org/2000/svg">
<path d="M0.766602 3.83327C0.766602 2.13959 2.1396 0.766602 3.83327 0.766602H6.89993V22.2333H3.83327C2.1396 22.2333 0.766602 20.8603 0.766602 19.1666V3.83327Z" fill="url(#paint0_linear_1819_22171)"/>
<path d="M6.8999 0.766602H19.1666C20.8602 0.766602 22.2332 2.1396 22.2332 3.83327V19.1666C22.2332 20.8603 20.8602 22.2333 19.1666 22.2333H6.8999V0.766602Z" fill="url(#paint1_linear_1819_22171)"/>
<path d="M9.19971 6.13343C9.19971 5.28659 9.8862 4.6001 10.733 4.6001H18.3997C19.2465 4.6001 19.933 5.28659 19.933 6.13343V6.13343C19.933 6.98027 19.2465 7.66676 18.3997 7.66676H10.733C9.8862 7.66676 9.19971 6.98027 9.19971 6.13343V6.13343Z" fill="white"/>
<path d="M9.19971 11.5001C9.19971 10.6533 9.8862 9.9668 10.733 9.9668H18.3997C19.2465 9.9668 19.933 10.6533 19.933 11.5001V11.5001C19.933 12.347 19.2465 13.0335 18.3997 13.0335H10.733C9.8862 13.0335 9.19971 12.347 9.19971 11.5001V11.5001Z" fill="white"/>
<path d="M13.7998 16.8668C13.7998 16.02 14.4863 15.3335 15.3331 15.3335H18.3998C19.2466 15.3335 19.9331 16.02 19.9331 16.8668V16.8668C19.9331 17.7137 19.2466 18.4002 18.3998 18.4002H15.3331C14.4863 18.4002 13.7998 17.7137 13.7998 16.8668V16.8668Z" fill="#0C63E7"/>
<defs>
<linearGradient id="paint0_linear_1819_22171" x1="3.83327" y1="0.766602" x2="3.83327" y2="22.2333" gradientUnits="userSpaceOnUse">
<stop stop-color="#0A85ED"/>
<stop offset="1" stop-color="#0C63E7"/>
</linearGradient>
<linearGradient id="paint1_linear_1819_22171" x1="14.5666" y1="0.766602" x2="14.5666" y2="22.2333" gradientUnits="userSpaceOnUse">
<stop stop-color="#07C8F9"/>
<stop offset="1" stop-color="#09A6F3"/>
</linearGradient>
</defs>
</svg>
