<svg width="20" height="21" viewBox="0 0 20 21" fill="none" xmlns="http://www.w3.org/2000/svg">
<path fill-rule="evenodd" clip-rule="evenodd" d="M4.6665 6.49984C6.13926 6.49984 7.33317 5.30593 7.33317 3.83317C7.33317 2.36041 6.13926 1.1665 4.6665 1.1665C3.19374 1.1665 1.99984 2.36041 1.99984 3.83317C1.99984 5.30593 3.19374 6.49984 4.6665 6.49984ZM4.6665 7.83317C2.45737 7.83317 0.666504 9.62403 0.666504 11.8332V17.8332C0.666504 18.9377 1.56193 19.8332 2.6665 19.8332H8.6665V11.8332C8.6665 9.62403 6.87564 7.83317 4.6665 7.83317Z" fill="url(#paint0_linear_1896_8707)"/>
<path fill-rule="evenodd" clip-rule="evenodd" d="M15.333 6.49984C16.8058 6.49984 17.9997 5.30593 17.9997 3.83317C17.9997 2.36041 16.8058 1.1665 15.333 1.1665C13.8602 1.1665 12.6663 2.36041 12.6663 3.83317C12.6663 5.30593 13.8602 6.49984 15.333 6.49984ZM15.333 7.83317C13.1239 7.83317 11.333 9.62403 11.333 11.8332V19.8332H17.333C18.4376 19.8332 19.333 18.9377 19.333 17.8332V11.8332C19.333 9.62403 17.5421 7.83317 15.333 7.83317Z" fill="url(#paint1_linear_1896_8707)"/>
<path fill-rule="evenodd" clip-rule="evenodd" d="M10 9.83333C11.4728 9.83333 12.6667 8.63943 12.6667 7.16667C12.6667 5.69391 11.4728 4.5 10 4.5C8.52724 4.5 7.33333 5.69391 7.33333 7.16667C7.33333 8.63943 8.52724 9.83333 10 9.83333ZM10 11.1667C7.79086 11.1667 6 12.9575 6 15.1667V19.8333H14V15.1667C14 12.9575 12.2091 11.1667 10 11.1667Z" fill="url(#paint2_linear_1896_8707)"/>
<defs>
<linearGradient id="paint0_linear_1896_8707" x1="4.6665" y1="1.1665" x2="4.6665" y2="19.8332" gradientUnits="userSpaceOnUse">
<stop stop-color="#FECF3E"/>
<stop offset="1" stop-color="#FFB600"/>
</linearGradient>
<linearGradient id="paint1_linear_1896_8707" x1="15.333" y1="1.1665" x2="15.333" y2="19.8332" gradientUnits="userSpaceOnUse">
<stop stop-color="#FECF3E"/>
<stop offset="1" stop-color="#FFB600"/>
</linearGradient>
<linearGradient id="paint2_linear_1896_8707" x1="10" y1="4.5" x2="10" y2="19.8333" gradientUnits="userSpaceOnUse">
<stop stop-color="#FF8500"/>
<stop offset="1" stop-color="#FF6D00"/>
</linearGradient>
</defs>
</svg>
