<svg width="20" height="22" viewBox="0 0 20 22" fill="none" xmlns="http://www.w3.org/2000/svg">
<path d="M0.666504 7.42578C0.666504 6.32121 1.56193 5.42578 2.6665 5.42578H17.3332C18.4377 5.42578 19.3332 6.32121 19.3332 7.42578V18.0924C19.3332 19.197 18.4377 20.0924 17.3332 20.0924H2.6665C1.56193 20.0924 0.666504 19.197 0.666504 18.0924V7.42578Z" fill="url(#paint0_linear_1896_8824)"/>
<path d="M0.666504 7.42578C0.666504 6.32121 1.56193 5.42578 2.6665 5.42578H17.3332C18.4377 5.42578 19.3332 6.32121 19.3332 7.42578V8.75911C19.3332 11.3364 17.2438 13.4258 14.6665 13.4258H5.33317C2.75584 13.4258 0.666504 11.3364 0.666504 8.75911V7.42578Z" fill="url(#paint1_linear_1896_8824)"/>
<path fill-rule="evenodd" clip-rule="evenodd" d="M6.66667 1.42578C5.19391 1.42578 4 2.61969 4 4.09245V5.42578H6.66667V4.75911C6.66667 4.39093 6.96515 4.09245 7.33333 4.09245H12.6667C13.0349 4.09245 13.3333 4.39093 13.3333 4.75911V5.42578H16V4.09245C16 2.61969 14.8061 1.42578 13.3333 1.42578H6.66667Z" fill="#09A6F3"/>
<path d="M8.6665 11.0923C8.6665 10.54 9.11422 10.0923 9.6665 10.0923H10.3332C10.8855 10.0923 11.3332 10.54 11.3332 11.0923V11.0923C11.3332 11.6446 10.8855 12.0923 10.3332 12.0923H9.6665C9.11422 12.0923 8.6665 11.6446 8.6665 11.0923V11.0923Z" fill="white"/>
<defs>
<linearGradient id="paint0_linear_1896_8824" x1="9.99984" y1="5.42578" x2="9.99984" y2="20.0924" gradientUnits="userSpaceOnUse">
<stop stop-color="#07C8F9"/>
<stop offset="1" stop-color="#09A6F3"/>
</linearGradient>
<linearGradient id="paint1_linear_1896_8824" x1="9.99984" y1="5.42578" x2="9.99984" y2="13.4258" gradientUnits="userSpaceOnUse">
<stop stop-color="#0A85ED"/>
<stop offset="1" stop-color="#0C63E7"/>
</linearGradient>
</defs>
</svg>
