<svg width="30" height="30" viewBox="0 0 30 30" fill="none" xmlns="http://www.w3.org/2000/svg">
<path d="M4.3125 15C4.3125 9.09776 9.09776 4.3125 15 4.3125C20.9022 4.3125 25.6875 9.09776 25.6875 15C25.6875 20.9022 20.9022 25.6875 15 25.6875C9.09776 25.6875 4.3125 20.9022 4.3125 15ZM15 18.375H20.625C21.2715 18.375 21.8915 18.1182 22.3486 17.6611C22.8057 17.204 23.0625 16.584 23.0625 15.9375C23.0625 15.291 22.8057 14.671 22.3486 14.2139C21.8915 13.7568 21.2715 13.5 20.625 13.5H17.4375V7.5C17.4375 6.85354 17.1807 6.23355 16.7236 5.77643C16.2665 5.31931 15.6465 5.0625 15 5.0625C14.3535 5.0625 13.7335 5.31931 13.2764 5.77643C12.8193 6.23355 12.5625 6.85353 12.5625 7.5V15.9375C12.5625 16.584 12.8193 17.204 13.2764 17.6611C13.7335 18.1182 14.3535 18.375 15 18.375Z" fill="#0168FA" stroke="#0168FA" stroke-width="3"/>
</svg>
