<svg width="30" height="31" viewBox="0 0 30 31" fill="none" xmlns="http://www.w3.org/2000/svg">
<path d="M22.3486 17.6622L21.2879 16.6016L22.3486 17.6622C22.8057 17.2051 23.0625 16.5851 23.0625 15.9386C23.0625 15.2922 22.8057 14.6722 22.3486 14.215C21.8915 13.7579 21.2715 13.501 20.625 13.501H17.4375V7.5004C17.4375 6.85396 17.1807 6.23396 16.7236 5.77682C16.2665 5.31967 15.6465 5.06282 15 5.06282C14.3535 5.06282 13.7335 5.31967 13.2764 5.77682C12.8193 6.23396 12.5625 6.85396 12.5625 7.5004V15.9386C12.5625 16.5851 12.8193 17.2051 13.2764 17.6622C13.7335 18.1194 14.3535 18.3762 15 18.3762H20.625C21.2715 18.3762 21.8915 18.1194 22.3486 17.6622ZM4.3125 15.001C4.3125 9.09811 9.09788 4.3125 15 4.3125C20.9021 4.3125 25.6875 9.09811 25.6875 15.001C25.6875 20.904 20.9021 25.6896 15 25.6896C9.09788 25.6896 4.3125 20.904 4.3125 15.001Z" fill="#0168FA" stroke="#0168FA" stroke-width="3"/>
<rect x="0.5" y="0.5" width="29" height="29.0026" stroke="#CCE1FF"/>
</svg>
