<svg width="20" height="19" viewBox="0 0 20 19" fill="none" xmlns="http://www.w3.org/2000/svg">
<path fill-rule="evenodd" clip-rule="evenodd" d="M19.3332 8.16118C19.3332 7.52906 19.0514 6.93193 18.5688 6.54139L11.2355 0.606684C10.5103 0.0197777 9.48942 0.019777 8.76419 0.606683L1.43086 6.54138C0.94828 6.93193 0.666504 7.52906 0.666504 8.16118V16.7732C0.666504 17.9109 1.56193 18.8332 2.6665 18.8332H5.33317C6.43774 18.8332 7.33317 17.9109 7.33317 16.7732V13.3399C7.33317 11.823 8.52708 10.5933 9.99984 10.5933C11.4726 10.5933 12.6665 11.823 12.6665 13.3399V16.7732C12.6665 17.9109 13.5619 18.8332 14.6665 18.8332H17.3332C18.4377 18.8332 19.3332 17.9109 19.3332 16.7732L19.3332 8.16118Z" fill="url(#paint0_linear_1896_1643)"/>
<defs>
<linearGradient id="paint0_linear_1896_1643" x1="9.99984" y1="0.166504" x2="9.99984" y2="18.8332" gradientUnits="userSpaceOnUse">
<stop stop-color="#09A6F3"/>
<stop offset="1" stop-color="#0A85ED"/>
</linearGradient>
</defs>
</svg>
