<svg width="27" height="25" viewBox="0 0 27 25" fill="none" xmlns="http://www.w3.org/2000/svg">
<path d="M26.0642 5.35708C26.0642 4.40987 25.6735 3.50146 24.9781 2.83169C24.2827 2.16191 23.3395 1.78564 22.3561 1.78564H21.429V0.91789C21.429 0.43742 21.0455 0.0250302 20.5466 0.00103459C20.4213 -0.00478195 20.296 0.0139722 20.1784 0.0561608C20.0608 0.0983493 19.9533 0.163094 19.8625 0.246471C19.7716 0.329849 19.6993 0.430123 19.6499 0.541218C19.6005 0.652313 19.575 0.771915 19.575 0.892779V1.78564H6.59661V0.91789C6.59661 0.43742 6.21305 0.0250302 5.71419 0.00103459C5.58885 -0.00478195 5.46359 0.0139722 5.34599 0.0561608C5.2284 0.0983493 5.12092 0.163094 5.03007 0.246471C4.93922 0.329849 4.8669 0.430123 4.81748 0.541218C4.76805 0.652313 4.74257 0.771915 4.74255 0.892779V1.78564H3.81553C2.83208 1.78564 1.88891 2.16191 1.1935 2.83169C0.498096 3.50146 0.107422 4.40987 0.107422 5.35708V6.02672C0.107422 6.08592 0.131839 6.1427 0.175302 6.18456C0.218765 6.22642 0.277713 6.24994 0.339178 6.24994H25.8324C25.8939 6.24994 25.9528 6.22642 25.9963 6.18456C26.0397 6.1427 26.0642 6.08592 26.0642 6.02672V5.35708Z" fill="#001737"/>
<path d="M0.107422 21.4286C0.107422 22.3758 0.498096 23.2842 1.1935 23.9539C1.88891 24.6237 2.83208 25 3.81553 25H22.3561C23.3395 25 24.2827 24.6237 24.9781 23.9539C25.6735 23.2842 26.0642 22.3758 26.0642 21.4286V8.20307C26.0642 8.15867 26.0458 8.11609 26.0133 8.08469C25.9807 8.0533 25.9364 8.03566 25.8903 8.03566H0.281239C0.23514 8.03566 0.190929 8.0533 0.158332 8.08469C0.125735 8.11609 0.107422 8.15867 0.107422 8.20307V21.4286ZM20.0385 9.82138C20.3135 9.82138 20.5824 9.89993 20.811 10.0471C21.0397 10.1943 21.2179 10.4034 21.3232 10.6481C21.4284 10.8929 21.456 11.1622 21.4023 11.422C21.3487 11.6817 21.2162 11.9204 21.0217 12.1077C20.8273 12.295 20.5795 12.4225 20.3098 12.4742C20.04 12.5259 19.7604 12.4994 19.5064 12.398C19.2523 12.2966 19.0351 12.125 18.8823 11.9047C18.7295 11.6845 18.6479 11.4256 18.6479 11.1607C18.6479 10.8055 18.7945 10.4648 19.0552 10.2136C19.316 9.96248 19.6697 9.82138 20.0385 9.82138ZM20.0385 14.2857C20.3135 14.2857 20.5824 14.3642 20.811 14.5114C21.0397 14.6586 21.2179 14.8677 21.3232 15.1124C21.4284 15.3572 21.456 15.6265 21.4023 15.8863C21.3487 16.146 21.2162 16.3847 21.0217 16.572C20.8273 16.7593 20.5795 16.8868 20.3098 16.9385C20.04 16.9902 19.7604 16.9637 19.5064 16.8623C19.2523 16.7609 19.0351 16.5893 18.8823 16.369C18.7295 16.1488 18.6479 15.8899 18.6479 15.625C18.6479 15.2698 18.7945 14.9291 19.0552 14.6779C19.316 14.4268 19.6697 14.2857 20.0385 14.2857ZM15.4034 9.82138C15.6784 9.82138 15.9472 9.89993 16.1759 10.0471C16.4046 10.1943 16.5828 10.4034 16.688 10.6481C16.7933 10.8929 16.8208 11.1622 16.7672 11.422C16.7135 11.6817 16.5811 11.9204 16.3866 12.1077C16.1921 12.295 15.9444 12.4225 15.6746 12.4742C15.4049 12.5259 15.1253 12.4994 14.8712 12.398C14.6171 12.2966 14.4 12.125 14.2472 11.9047C14.0944 11.6845 14.0128 11.4256 14.0128 11.1607C14.0128 10.8055 14.1593 10.4648 14.4201 10.2136C14.6809 9.96248 15.0346 9.82138 15.4034 9.82138ZM15.4034 14.2857C15.6784 14.2857 15.9472 14.3642 16.1759 14.5114C16.4046 14.6586 16.5828 14.8677 16.688 15.1124C16.7933 15.3572 16.8208 15.6265 16.7672 15.8863C16.7135 16.146 16.5811 16.3847 16.3866 16.572C16.1921 16.7593 15.9444 16.8868 15.6746 16.9385C15.4049 16.9902 15.1253 16.9637 14.8712 16.8623C14.6171 16.7609 14.4 16.5893 14.2472 16.369C14.0944 16.1488 14.0128 15.8899 14.0128 15.625C14.0128 15.2698 14.1593 14.9291 14.4201 14.6779C14.6809 14.4268 15.0346 14.2857 15.4034 14.2857ZM15.4034 18.75C15.6784 18.75 15.9472 18.8285 16.1759 18.9757C16.4046 19.1229 16.5828 19.332 16.688 19.5767C16.7933 19.8215 16.8208 20.0908 16.7672 20.3506C16.7135 20.6103 16.5811 20.849 16.3866 21.0363C16.1921 21.2236 15.9444 21.3511 15.6746 21.4028C15.4049 21.4545 15.1253 21.428 14.8712 21.3266C14.6171 21.2252 14.4 21.0536 14.2472 20.8333C14.0944 20.6131 14.0128 20.3542 14.0128 20.0893C14.0128 19.7341 14.1593 19.3934 14.4201 19.1422C14.6809 18.8911 15.0346 18.75 15.4034 18.75ZM10.7682 14.2857C11.0432 14.2857 11.3121 14.3642 11.5408 14.5114C11.7694 14.6586 11.9477 14.8677 12.0529 15.1124C12.1582 15.3572 12.1857 15.6265 12.132 15.8863C12.0784 16.146 11.946 16.3847 11.7515 16.572C11.557 16.7593 11.3092 16.8868 11.0395 16.9385C10.7698 16.9902 10.4902 16.9637 10.2361 16.8623C9.982 16.7609 9.76483 16.5893 9.61203 16.369C9.45924 16.1488 9.37769 15.8899 9.37769 15.625C9.37769 15.2698 9.52419 14.9291 9.78497 14.6779C10.0457 14.4268 10.3994 14.2857 10.7682 14.2857ZM10.7682 18.75C11.0432 18.75 11.3121 18.8285 11.5408 18.9757C11.7694 19.1229 11.9477 19.332 12.0529 19.5767C12.1582 19.8215 12.1857 20.0908 12.132 20.3506C12.0784 20.6103 11.946 20.849 11.7515 21.0363C11.557 21.2236 11.3092 21.3511 11.0395 21.4028C10.7698 21.4545 10.4902 21.428 10.2361 21.3266C9.982 21.2252 9.76483 21.0536 9.61203 20.8333C9.45924 20.6131 9.37769 20.3542 9.37769 20.0893C9.37769 19.7341 9.52419 19.3934 9.78497 19.1422C10.0457 18.8911 10.3994 18.75 10.7682 18.75ZM6.13309 14.2857C6.40812 14.2857 6.67696 14.3642 6.90564 14.5114C7.13431 14.6586 7.31254 14.8677 7.41778 15.1124C7.52303 15.3572 7.55057 15.6265 7.49691 15.8863C7.44326 16.146 7.31082 16.3847 7.11635 16.572C6.92188 16.7593 6.67411 16.8868 6.40437 16.9385C6.13464 16.9902 5.85504 16.9637 5.60096 16.8623C5.34687 16.7609 5.1297 16.5893 4.9769 16.369C4.82411 16.1488 4.74255 15.8899 4.74255 15.625C4.74255 15.2698 4.88906 14.9291 5.14983 14.6779C5.41061 14.4268 5.7643 14.2857 6.13309 14.2857ZM6.13309 18.75C6.40812 18.75 6.67696 18.8285 6.90564 18.9757C7.13431 19.1229 7.31254 19.332 7.41778 19.5767C7.52303 19.8215 7.55057 20.0908 7.49691 20.3506C7.44326 20.6103 7.31082 20.849 7.11635 21.0363C6.92188 21.2236 6.67411 21.3511 6.40437 21.4028C6.13464 21.4545 5.85504 21.428 5.60096 21.3266C5.34687 21.2252 5.1297 21.0536 4.9769 20.8333C4.82411 20.6131 4.74255 20.3542 4.74255 20.0893C4.74255 19.7341 4.88906 19.3934 5.14983 19.1422C5.41061 18.8911 5.7643 18.75 6.13309 18.75Z" fill="#001737"/>
</svg>
