<svg width="19" height="19" viewBox="0 0 19 19" fill="none" xmlns="http://www.w3.org/2000/svg">
<path d="M11.3125 9.75C11.8303 9.75 12.25 9.33027 12.25 8.8125C12.25 8.29473 11.8303 7.875 11.3125 7.875C10.7947 7.875 10.375 8.29473 10.375 8.8125C10.375 9.33027 10.7947 9.75 11.3125 9.75Z" fill="#596882"/>
<path d="M14.4375 9.75C14.9553 9.75 15.375 9.33027 15.375 8.8125C15.375 8.29473 14.9553 7.875 14.4375 7.875C13.9197 7.875 13.5 8.29473 13.5 8.8125C13.5 9.33027 13.9197 9.75 14.4375 9.75Z" fill="#596882"/>
<path d="M11.3125 12.875C11.8303 12.875 12.25 12.4553 12.25 11.9375C12.25 11.4197 11.8303 11 11.3125 11C10.7947 11 10.375 11.4197 10.375 11.9375C10.375 12.4553 10.7947 12.875 11.3125 12.875Z" fill="#596882"/>
<path d="M14.4375 12.875C14.9553 12.875 15.375 12.4553 15.375 11.9375C15.375 11.4197 14.9553 11 14.4375 11C13.9197 11 13.5 11.4197 13.5 11.9375C13.5 12.4553 13.9197 12.875 14.4375 12.875Z" fill="#596882"/>
<path d="M5.0625 12.875C5.58027 12.875 6 12.4553 6 11.9375C6 11.4197 5.58027 11 5.0625 11C4.54473 11 4.125 11.4197 4.125 11.9375C4.125 12.4553 4.54473 12.875 5.0625 12.875Z" fill="#596882"/>
<path d="M8.1875 12.875C8.70527 12.875 9.125 12.4553 9.125 11.9375C9.125 11.4197 8.70527 11 8.1875 11C7.66973 11 7.25 11.4197 7.25 11.9375C7.25 12.4553 7.66973 12.875 8.1875 12.875Z" fill="#596882"/>
<path d="M5.0625 16C5.58027 16 6 15.5803 6 15.0625C6 14.5447 5.58027 14.125 5.0625 14.125C4.54473 14.125 4.125 14.5447 4.125 15.0625C4.125 15.5803 4.54473 16 5.0625 16Z" fill="#596882"/>
<path d="M8.1875 16C8.70527 16 9.125 15.5803 9.125 15.0625C9.125 14.5447 8.70527 14.125 8.1875 14.125C7.66973 14.125 7.25 14.5447 7.25 15.0625C7.25 15.5803 7.66973 16 8.1875 16Z" fill="#596882"/>
<path d="M11.3125 16C11.8303 16 12.25 15.5803 12.25 15.0625C12.25 14.5447 11.8303 14.125 11.3125 14.125C10.7947 14.125 10.375 14.5447 10.375 15.0625C10.375 15.5803 10.7947 16 11.3125 16Z" fill="#596882"/>
<path fill-rule="evenodd" clip-rule="evenodd" d="M5.375 1.625C5.375 1.27982 5.09518 1 4.75 1C4.40482 1 4.125 1.27982 4.125 1.625V2.25H3.5C2.11929 2.25 1 3.36929 1 4.75V16C1 17.3807 2.11929 18.5 3.5 18.5H16C17.3807 18.5 18.5 17.3807 18.5 16V4.75C18.5 3.36929 17.3807 2.25 16 2.25H15.375V1.625C15.375 1.27982 15.0952 1 14.75 1C14.4048 1 14.125 1.27982 14.125 1.625V2.25H5.375V1.625ZM16 3.5C16.6904 3.5 17.25 4.05964 17.25 4.75V5.375H2.25V4.75C2.25 4.05964 2.80964 3.5 3.5 3.5H16ZM2.25 6.625V16C2.25 16.6904 2.80964 17.25 3.5 17.25H16C16.6904 17.25 17.25 16.6904 17.25 16V6.625H2.25Z" fill="#596882"/>
<path d="M4.125 2.25V2.5C4.26307 2.5 4.375 2.38807 4.375 2.25H4.125ZM15.375 2.25H15.125C15.125 2.38807 15.2369 2.5 15.375 2.5V2.25ZM14.125 2.25V2.5C14.2631 2.5 14.375 2.38807 14.375 2.25H14.125ZM5.375 2.25H5.125C5.125 2.38807 5.23693 2.5 5.375 2.5V2.25ZM17.25 5.375V5.625C17.3881 5.625 17.5 5.51307 17.5 5.375H17.25ZM2.25 5.375H2C2 5.51307 2.11193 5.625 2.25 5.625V5.375ZM2.25 6.625V6.375C2.11193 6.375 2 6.48693 2 6.625H2.25ZM17.25 6.625H17.5C17.5 6.48693 17.3881 6.375 17.25 6.375V6.625ZM11.3125 10C11.9683 10 12.5 9.46834 12.5 8.8125H12C12 9.1922 11.6922 9.5 11.3125 9.5V10ZM12.5 8.8125C12.5 8.15666 11.9683 7.625 11.3125 7.625V8.125C11.6922 8.125 12 8.4328 12 8.8125H12.5ZM11.3125 7.625C10.6567 7.625 10.125 8.15666 10.125 8.8125H10.625C10.625 8.4328 10.9328 8.125 11.3125 8.125V7.625ZM10.125 8.8125C10.125 9.46834 10.6567 10 11.3125 10V9.5C10.9328 9.5 10.625 9.1922 10.625 8.8125H10.125ZM14.4375 10C15.0933 10 15.625 9.46834 15.625 8.8125H15.125C15.125 9.1922 14.8172 9.5 14.4375 9.5V10ZM15.625 8.8125C15.625 8.15666 15.0933 7.625 14.4375 7.625V8.125C14.8172 8.125 15.125 8.4328 15.125 8.8125H15.625ZM14.4375 7.625C13.7817 7.625 13.25 8.15666 13.25 8.8125H13.75C13.75 8.4328 14.0578 8.125 14.4375 8.125V7.625ZM13.25 8.8125C13.25 9.46834 13.7817 10 14.4375 10V9.5C14.0578 9.5 13.75 9.1922 13.75 8.8125H13.25ZM11.3125 13.125C11.9683 13.125 12.5 12.5933 12.5 11.9375H12C12 12.3172 11.6922 12.625 11.3125 12.625V13.125ZM12.5 11.9375C12.5 11.2817 11.9683 10.75 11.3125 10.75V11.25C11.6922 11.25 12 11.5578 12 11.9375H12.5ZM11.3125 10.75C10.6567 10.75 10.125 11.2817 10.125 11.9375H10.625C10.625 11.5578 10.9328 11.25 11.3125 11.25V10.75ZM10.125 11.9375C10.125 12.5933 10.6567 13.125 11.3125 13.125V12.625C10.9328 12.625 10.625 12.3172 10.625 11.9375H10.125ZM14.4375 13.125C15.0933 13.125 15.625 12.5933 15.625 11.9375H15.125C15.125 12.3172 14.8172 12.625 14.4375 12.625V13.125ZM15.625 11.9375C15.625 11.2817 15.0933 10.75 14.4375 10.75V11.25C14.8172 11.25 15.125 11.5578 15.125 11.9375H15.625ZM14.4375 10.75C13.7817 10.75 13.25 11.2817 13.25 11.9375H13.75C13.75 11.5578 14.0578 11.25 14.4375 11.25V10.75ZM13.25 11.9375C13.25 12.5933 13.7817 13.125 14.4375 13.125V12.625C14.0578 12.625 13.75 12.3172 13.75 11.9375H13.25ZM5.0625 13.125C5.71834 13.125 6.25 12.5933 6.25 11.9375H5.75C5.75 12.3172 5.4422 12.625 5.0625 12.625V13.125ZM6.25 11.9375C6.25 11.2817 5.71834 10.75 5.0625 10.75V11.25C5.4422 11.25 5.75 11.5578 5.75 11.9375H6.25ZM5.0625 10.75C4.40666 10.75 3.875 11.2817 3.875 11.9375H4.375C4.375 11.5578 4.6828 11.25 5.0625 11.25V10.75ZM3.875 11.9375C3.875 12.5933 4.40666 13.125 5.0625 13.125V12.625C4.6828 12.625 4.375 12.3172 4.375 11.9375H3.875ZM8.1875 13.125C8.84334 13.125 9.375 12.5933 9.375 11.9375H8.875C8.875 12.3172 8.5672 12.625 8.1875 12.625V13.125ZM9.375 11.9375C9.375 11.2817 8.84334 10.75 8.1875 10.75V11.25C8.5672 11.25 8.875 11.5578 8.875 11.9375H9.375ZM8.1875 10.75C7.53166 10.75 7 11.2817 7 11.9375H7.5C7.5 11.5578 7.8078 11.25 8.1875 11.25V10.75ZM7 11.9375C7 12.5933 7.53166 13.125 8.1875 13.125V12.625C7.8078 12.625 7.5 12.3172 7.5 11.9375H7ZM5.0625 16.25C5.71834 16.25 6.25 15.7183 6.25 15.0625H5.75C5.75 15.4422 5.4422 15.75 5.0625 15.75V16.25ZM6.25 15.0625C6.25 14.4067 5.71834 13.875 5.0625 13.875V14.375C5.4422 14.375 5.75 14.6828 5.75 15.0625H6.25ZM5.0625 13.875C4.40666 13.875 3.875 14.4067 3.875 15.0625H4.375C4.375 14.6828 4.6828 14.375 5.0625 14.375V13.875ZM3.875 15.0625C3.875 15.7183 4.40666 16.25 5.0625 16.25V15.75C4.6828 15.75 4.375 15.4422 4.375 15.0625H3.875ZM8.1875 16.25C8.84334 16.25 9.375 15.7183 9.375 15.0625H8.875C8.875 15.4422 8.5672 15.75 8.1875 15.75V16.25ZM9.375 15.0625C9.375 14.4067 8.84334 13.875 8.1875 13.875V14.375C8.5672 14.375 8.875 14.6828 8.875 15.0625H9.375ZM8.1875 13.875C7.53166 13.875 7 14.4067 7 15.0625H7.5C7.5 14.6828 7.8078 14.375 8.1875 14.375V13.875ZM7 15.0625C7 15.7183 7.53166 16.25 8.1875 16.25V15.75C7.8078 15.75 7.5 15.4422 7.5 15.0625H7ZM11.3125 16.25C11.9683 16.25 12.5 15.7183 12.5 15.0625H12C12 15.4422 11.6922 15.75 11.3125 15.75V16.25ZM12.5 15.0625C12.5 14.4067 11.9683 13.875 11.3125 13.875V14.375C11.6922 14.375 12 14.6828 12 15.0625H12.5ZM11.3125 13.875C10.6567 13.875 10.125 14.4067 10.125 15.0625H10.625C10.625 14.6828 10.9328 14.375 11.3125 14.375V13.875ZM10.125 15.0625C10.125 15.7183 10.6567 16.25 11.3125 16.25V15.75C10.9328 15.75 10.625 15.4422 10.625 15.0625H10.125ZM4.75 1.25C4.95711 1.25 5.125 1.41789 5.125 1.625H5.625C5.625 1.14175 5.23325 0.75 4.75 0.75V1.25ZM4.375 1.625C4.375 1.41789 4.54289 1.25 4.75 1.25V0.75C4.26675 0.75 3.875 1.14175 3.875 1.625H4.375ZM4.375 2.25V1.625H3.875V2.25H4.375ZM3.5 2.5H4.125V2H3.5V2.5ZM1.25 4.75C1.25 3.50736 2.25736 2.5 3.5 2.5V2C1.98122 2 0.75 3.23122 0.75 4.75H1.25ZM1.25 16V4.75H0.75V16H1.25ZM3.5 18.25C2.25736 18.25 1.25 17.2426 1.25 16H0.75C0.75 17.5188 1.98122 18.75 3.5 18.75V18.25ZM16 18.25H3.5V18.75H16V18.25ZM18.25 16C18.25 17.2426 17.2426 18.25 16 18.25V18.75C17.5188 18.75 18.75 17.5188 18.75 16H18.25ZM18.25 4.75V16H18.75V4.75H18.25ZM16 2.5C17.2426 2.5 18.25 3.50736 18.25 4.75H18.75C18.75 3.23122 17.5188 2 16 2V2.5ZM15.375 2.5H16V2H15.375V2.5ZM15.125 1.625V2.25H15.625V1.625H15.125ZM14.75 1.25C14.9571 1.25 15.125 1.41789 15.125 1.625H15.625C15.625 1.14175 15.2332 0.75 14.75 0.75V1.25ZM14.375 1.625C14.375 1.41789 14.5429 1.25 14.75 1.25V0.75C14.2668 0.75 13.875 1.14175 13.875 1.625H14.375ZM14.375 2.25V1.625H13.875V2.25H14.375ZM5.375 2.5H14.125V2H5.375V2.5ZM5.125 1.625V2.25H5.625V1.625H5.125ZM17.5 4.75C17.5 3.92157 16.8284 3.25 16 3.25V3.75C16.5523 3.75 17 4.19772 17 4.75H17.5ZM17.5 5.375V4.75H17V5.375H17.5ZM2.25 5.625H17.25V5.125H2.25V5.625ZM2 4.75V5.375H2.5V4.75H2ZM3.5 3.25C2.67157 3.25 2 3.92157 2 4.75H2.5C2.5 4.19772 2.94772 3.75 3.5 3.75V3.25ZM2 6.625V16H2.5V6.625H2ZM2 16C2 16.8284 2.67157 17.5 3.5 17.5V17C2.94772 17 2.5 16.5523 2.5 16H2ZM3.5 17.5H16V17H3.5V17.5ZM16 17.5C16.8284 17.5 17.5 16.8284 17.5 16H17C17 16.5523 16.5523 17 16 17V17.5ZM17.5 16V6.625H17V16H17.5ZM17.25 6.375H2.25V6.875H17.25V6.375ZM16 3.25H3.5V3.75H16V3.25Z" fill="#596882"/>
</svg>
