<svg width="28" height="25" viewBox="0 0 28 25" fill="none" xmlns="http://www.w3.org/2000/svg">
<path d="M16.3319 25C16.1822 24.9999 16.0334 24.9749 15.8914 24.9261L11.2161 23.3233C10.938 23.227 10.6965 23.043 10.5258 22.7972C10.3551 22.5514 10.2639 22.2565 10.2652 21.9543V14.7903C10.2639 14.7874 10.2622 14.7847 10.26 14.7824L0.422114 2.97716C0.20397 2.71535 0.0633338 2.39454 0.0169009 2.05284C-0.029532 1.71113 0.0201892 1.36287 0.160161 1.04941C0.300134 0.735943 0.524477 0.470443 0.806557 0.284429C1.08864 0.0984148 1.41661 -0.000301312 1.75152 6.90866e-07H26.2485C26.5834 -0.000301312 26.9114 0.0984148 27.1934 0.284429C27.4755 0.470443 27.6999 0.735943 27.8398 1.04941C27.9798 1.36287 28.0295 1.71113 27.9831 2.05284C27.9367 2.39454 27.796 2.71535 27.5779 2.97716L17.7371 14.7837C17.7351 14.7861 17.7333 14.7887 17.7319 14.7915V23.5577C17.7324 23.7472 17.6965 23.935 17.6264 24.1103C17.5562 24.2855 17.4531 24.4447 17.323 24.5788C17.1929 24.7128 17.0384 24.819 16.8683 24.8913C16.6982 24.9636 16.5159 25.0005 16.3319 25V25Z" fill="#001737"/>
</svg>
