<svg width="30" height="30" viewBox="0 0 30 30" fill="none" xmlns="http://www.w3.org/2000/svg">
<path d="M15 0C6.72909 0 0 6.72909 0 15C0 23.2709 6.72909 30 15 30C23.2709 30 30 23.2709 30 15C30 6.72909 23.2709 0 15 0ZM20.7692 16.1538H16.1538V20.7692C16.1538 21.0752 16.0323 21.3687 15.8159 21.5851C15.5995 21.8015 15.306 21.9231 15 21.9231C14.694 21.9231 14.4005 21.8015 14.1841 21.5851C13.9677 21.3687 13.8462 21.0752 13.8462 20.7692V16.1538H9.23077C8.92475 16.1538 8.63127 16.0323 8.41488 15.8159C8.19849 15.5995 8.07692 15.306 8.07692 15C8.07692 14.694 8.19849 14.4005 8.41488 14.1841C8.63127 13.9677 8.92475 13.8462 9.23077 13.8462H13.8462V9.23077C13.8462 8.92475 13.9677 8.63127 14.1841 8.41488C14.4005 8.19849 14.694 8.07692 15 8.07692C15.306 8.07692 15.5995 8.19849 15.8159 8.41488C16.0323 8.63127 16.1538 8.92475 16.1538 9.23077V13.8462H20.7692C21.0752 13.8462 21.3687 13.9677 21.5851 14.1841C21.8015 14.4005 21.9231 14.694 21.9231 15C21.9231 15.306 21.8015 15.5995 21.5851 15.8159C21.3687 16.0323 21.0752 16.1538 20.7692 16.1538Z" fill="#0168FA"/>
</svg>
